<svg xmlns="http://www.w3.org/2000/svg" xmlns:xlink="http://www.w3.org/1999/xlink" fill="none"
    version="1.1" width="512" height="512" viewBox="0 0 512 512">
    <defs>
        <clipPath id="master_svg0_24_11">
            <rect x="0" y="0" width="512" height="512" rx="0" />
        </clipPath>
    </defs>
    <g clip-path="url(#master_svg0_24_11)">
        <g>
            <path
                d="M48,256C48,141.12,141.12,48,256,48C370.88,48,464,141.12,464,256C464,370.88,370.88,464,256,464C141.12,464,48,370.88,48,256ZM256,154.667C217.708,154.667,186.667,185.708,186.667,224L186.667,288C186.693,326.273,217.727,357.285,256,357.285C294.273,357.285,325.307,326.273,325.333,288L325.333,224C325.333,185.708,294.29200000000003,154.667,256,154.667Z"
                fill="#409eff" fill-opacity="1" />
        </g>
        <g>
            <path
                d="M219.201509,259.9807C218.181475,263.9352,221.16245,267.7906,225.24253,267.79359999999997L244.8876,267.79359999999997C248.9677,267.7966,251.9487,271.652,250.9286,275.6065L238.1441,325.101C237.3735,328.089,239.6275,331.001,242.71,331L247.2057,331C248.8918,330.999,250.4561,330.12,251.3345,328.68L298.4608,251.0583L299.1554,249.863C301.5749,245.6909,298.4998,240.4718,293.69190000000003,240.4718L269.3795,240.4719C265.5116,240.4693,262.5765,236.9831,263.2292,233.1668L270.7688,189.00045L270.8937,188.10977C271.4046,184.35612,268.48879999999997,181.0141205,264.7043,181.0156563L244.9188,181.0156563Q244.5598,181.0000293464,244.0837,181.0000293464C241.476,180.99146998,239.186,182.73311,238.4953,185.25025L219.201509,259.9807Z"
                fill="#409eff" fill-opacity="1" />
        </g>
    </g>
</svg>